<svg xmlns:dc="http://purl.org/dc/elements/1.1/" xmlns:cc="http://creativecommons.org/ns#" xmlns:rdf="http://www.w3.org/1999/02/22-rdf-syntax-ns#" xmlns:svg="http://www.w3.org/2000/svg" xmlns="http://www.w3.org/2000/svg" xmlns:sodipodi="http://sodipodi.sourceforge.net/DTD/sodipodi-0.dtd" xmlns:inkscape="http://www.inkscape.org/namespaces/inkscape" version="1.1" x="0px" y="0px" viewBox="0 0 100 125"><g transform="translate(0,-952.36218)"><path style="text-indent:0;text-transform:none;direction:ltr;block-progression:tb;baseline-shift:baseline;color:#000000;enable-background:accumulate;" d="m 8.4072562,981.39123 c -2.7401996,0 -4.9686996,2.2599 -4.9686996,5 l 0,34.65627 c 0,2.7402 2.2285,4.9687 4.9686996,4.9687 l 83.5312998,0 c 2.7401,0 5.000001,-2.2285 5.000001,-4.9687 l 0,-34.65627 c 0,-2.74 -2.259901,-5 -5.000001,-5 l -83.5312998,0 z m 0,2 83.5312998,0 c 1.6668,0 3,1.3333 3,3 l 0,34.65627 c 0,1.6668 -1.3332,2.9687 -3,2.9687 l -83.5312998,0 c -1.6668,0 -2.9686996,-1.3019 -2.9686996,-2.9687 l 0,-34.65627 c 0,-1.6666 1.3018996,-3 2.9686996,-3 z m 63.0312998,8.1876 c -0.2176,-0.01 -0.451,2e-4 -0.6876,0.031 l -41.3437,0 c -3.7364,0 -4.6865,2.7806 -5.1563,6.56249 -0.254,3.76918 4.0626,15.03128 4.0626,15.03128 0.5997,1.8458 1.8209,2.6777 3.9062,2.5937 l 37.0938,0 c 1.7462,0.094 2.7624,-0.7807 3.0937,-2.25 0,0 4.1512,-12.0947 3.75,-15.90628 -0.2795,-2.21539 -1.456,-5.96899 -4.7187,-6.06239 z m -3.625,6.62499 c 0.9915,0 1.8124,0.8208 1.8124,1.81238 0,0.9918 -0.8209,1.7813 -1.8124,1.7813 -0.9918,0 -1.7813,-0.7894 -1.7813,-1.7813 0,-0.99158 0.7896,-1.81238 1.7813,-1.81238 z m -35.2188,0.125 c 0.9916,0 1.7812,0.8208 1.7812,1.81238 0,0.9918 -0.7895,1.7813 -1.7812,1.7813 -0.9917,0 -1.8125,-0.7894 -1.8125,-1.7813 0,-0.99158 0.8208,-1.81238 1.8125,-1.81238 z m 8.8125,0 c 0.9917,0 1.7813,0.8208 1.7813,1.81238 0,0.9918 -0.7896,1.7813 -1.7813,1.7813 -0.9917,0 -1.8125,-0.7894 -1.8125,-1.7813 0,-0.99158 0.8208,-1.81238 1.8125,-1.81238 z m 8.8125,0 c 0.9916,0 1.7812,0.8208 1.7812,1.81238 0,0.9918 -0.7895,1.7813 -1.7812,1.7813 -0.9917,0 -1.8125,-0.7894 -1.8125,-1.7813 0,-0.99158 0.8208,-1.81238 1.8125,-1.81238 z m 8.7812,0 c 0.9918,0 1.8126,0.8208 1.8126,1.81238 0,0.9918 -0.8208,1.7813 -1.8126,1.7813 -0.9915,0 -1.7812,-0.7894 -1.7812,-1.7813 0,-0.99158 0.7897,-1.81238 1.7812,-1.81238 z m -43.8124,0.5937 c -3.1068,0 -5.6249998,2.51838 -5.6249998,5.62498 0,3.1066 2.5181998,5.625 5.6249998,5.625 3.1065,0 5.625,-2.5184 5.625,-5.625 0,-3.1066 -2.5185,-5.62498 -5.625,-5.62498 z m 71,0 c -3.1068,0 -5.625,2.51838 -5.625,5.62498 0,3.1066 2.5182,5.625 5.625,5.625 3.1065,0 5.625,-2.5184 5.625,-5.625 0,-3.1066 -2.5185,-5.62498 -5.625,-5.62498 z m -48.6563,6.65628 c 0.9917,0 1.8125,0.8208 1.8125,1.8124 0,0.9918 -0.8208,1.7813 -1.8125,1.7813 -0.9916,0 -1.7813,-0.7894 -1.7813,-1.7813 0,-0.9916 0.7896,-1.8124 1.7813,-1.8124 z m 8.8125,0 c 0.9917,0 1.8125,0.8208 1.8125,1.8124 0,0.9918 -0.8208,1.7813 -1.8125,1.7813 -0.9917,0 -1.7812,-0.7894 -1.7812,-1.7813 0,-0.9916 0.7895,-1.8124 1.7812,-1.8124 z m 8.8125,0 c 0.9917,0 1.7813,0.8208 1.7813,1.8124 0,0.9918 -0.7896,1.7813 -1.7813,1.7813 -0.9916,0 -1.7813,-0.7894 -1.7813,-1.7813 0,-0.9916 0.7896,-1.8124 1.7813,-1.8124 z m 8.8125,0 c 0.9916,0 1.7812,0.8208 1.7812,1.8124 0,0.9918 -0.7895,1.7813 -1.7812,1.7813 -0.9917,0 -1.8125,-0.7894 -1.8125,-1.7813 0,-0.9916 0.8208,-1.8124 1.8125,-1.8124 z" fill="#000000" fill-opacity="1" stroke="none" marker="none" visibility="visible" display="inline" overflow="visible"/></g><text x="0" y="115" fill="#000000" font-size="5px" font-weight="bold" font-family="'Helvetica Neue', Helvetica, Arial-Unicode, Arial, Sans-serif">Created by Dalpat Prajapati</text><text x="0" y="120" fill="#000000" font-size="5px" font-weight="bold" font-family="'Helvetica Neue', Helvetica, Arial-Unicode, Arial, Sans-serif">from the Noun Project</text></svg>